<mxfile host="app.diagrams.net" modified="2024-01-15T14:21:57.859Z" agent="Mozilla/5.0 (X11; Linux x86_64) AppleWebKit/537.36 (KHTML, like Gecko) Chrome/120.0.0.0 Safari/537.36" version="22.1.18" etag="atS5lhxDbJS6K_iDe2FA" type="github">
  <diagram name="Page-1" id="aNRVwwlV-6TDqp_x3EfX">
    <mxGraphModel>
      <root>
        <mxCell id="0" />
        <mxCell id="1" parent="0" />
      </root>
    </mxGraphModel>
  </diagram>
</mxfile>
